<svg width="25" height="24" viewBox="0 0 25 24" fill="none" xmlns="http://www.w3.org/2000/svg">
<path d="M13.2 17.2496V10.7496C13.2 10.3354 12.8642 9.99961 12.45 9.99961C12.0358 9.99961 11.7 10.3354 11.7 10.7496V17.2496C11.7 17.6638 12.0358 17.9996 12.45 17.9996C12.8642 17.9996 13.2 17.6638 13.2 17.2496Z" fill="#97A1AF"/>
<path d="M10.2 17.2496V10.7496C10.2 10.3354 9.86421 9.99961 9.45 9.99961C9.03579 9.99961 8.7 10.3354 8.7 10.7496V17.2496C8.7 17.6638 9.03579 17.9996 9.45 17.9996C9.86421 17.9996 10.2 17.6638 10.2 17.2496Z" fill="#97A1AF"/>
<path d="M16.2 17.2496V10.7496C16.2 10.3354 15.8642 9.99961 15.45 9.99961C15.0358 9.99961 14.7 10.3354 14.7 10.7496V17.2496C14.7 17.6638 15.0358 17.9996 15.45 17.9996C15.8642 17.9996 16.2 17.6638 16.2 17.2496Z" fill="#97A1AF"/>
<path d="M16.5 5.99961C16.5 3.79961 14.7 2.09961 12.5 2.09961C10.3 2.09961 8.5 3.79961 8.5 5.99961H3.25C2.83579 5.99961 2.5 6.3354 2.5 6.74961C2.5 7.16382 2.83579 7.49961 3.25 7.49961H4.3L5.43146 19.6845C5.52696 20.713 6.38996 21.4996 7.42289 21.4996H17.7771C18.81 21.4996 19.673 20.713 19.7685 19.6845L20.9 7.49961H21.75C22.1642 7.49961 22.5 7.16382 22.5 6.74961C22.5 6.3354 22.1642 5.99961 21.75 5.99961H16.5ZM12.5 3.59961C13.9 3.59961 15 4.69961 15 5.99961H10C10 4.69961 11.1 3.59961 12.5 3.59961ZM18.2 19.9996H6.8L5.8 7.49961H8.8C8.8 7.49961 11.3 7.49961 16.2 7.49961C16.2 7.49961 17.2 7.49961 19.2 7.49961L18.2 19.9996Z" fill="#97A1AF"/>
</svg>
