<svg width="25" height="24" viewBox="0 0 25 24" fill="none" xmlns="http://www.w3.org/2000/svg">
<path d="M12.4998 13.9998L11.4998 14.9998M14.2498 18.2498L12.9998 19.6698M18.2748 5.65376C15.2961 6.27954 12.5639 7.75874 10.4115 9.91089C8.25921 12.063 6.77979 14.7951 6.15376 17.7738M19.2998 9.29976C18.2787 9.57824 17.41 10.2509 16.8849 11.1699C16.3598 12.0888 16.2213 13.1787 16.4998 14.1998C16.7782 15.2208 17.4509 16.0895 18.3699 16.6146C19.2888 17.1397 20.3787 17.2782 21.3998 16.9998M22.4638 20.7318C22.5114 20.9025 22.5128 21.0829 22.4678 21.2544C22.4228 21.4259 22.333 21.5823 22.2077 21.7077C22.0823 21.833 21.9259 21.9228 21.7544 21.9678C21.5829 22.0128 21.4025 22.0114 21.2318 21.9638L3.23176 16.9638C3.10522 16.9285 2.98686 16.8687 2.88344 16.7877C2.78002 16.7067 2.69357 16.6062 2.62903 16.4917C2.56449 16.3773 2.52312 16.2513 2.50729 16.1209C2.49146 15.9905 2.50147 15.8583 2.53676 15.7318C3.44501 12.462 5.18335 9.4826 7.58298 7.08298C9.9826 4.68335 12.962 2.94501 16.2318 2.03676C16.3583 2.00147 16.4905 1.99146 16.6209 2.00729C16.7513 2.02312 16.8773 2.06449 16.9917 2.12903C17.1062 2.19357 17.2067 2.28002 17.2877 2.38344C17.3687 2.48686 17.4285 2.60522 17.4638 2.73176L22.4638 20.7318Z" stroke="#F4511E" stroke-width="1.5" stroke-linecap="round" stroke-linejoin="round"/>
</svg>
