<svg width="25" height="24" viewBox="0 0 25 24" fill="none" xmlns="http://www.w3.org/2000/svg">
<path fill-rule="evenodd" clip-rule="evenodd" d="M16.5 8C16.5 10.2091 14.7091 12 12.5 12C10.2909 12 8.5 10.2091 8.5 8C8.5 5.79086 10.2909 4 12.5 4C14.7091 4 16.5 5.79086 16.5 8ZM15 8C15 9.38071 13.8807 10.5 12.5 10.5C11.1193 10.5 10 9.38071 10 8C10 6.61929 11.1193 5.5 12.5 5.5C13.8807 5.5 15 6.61929 15 8Z" fill="#97A1AF"/>
<path fill-rule="evenodd" clip-rule="evenodd" d="M4.5 17.772V20H20.5V17.772C20.5 16.1046 19.4657 14.6121 17.9045 14.0267L17.7669 13.9751C14.3711 12.7017 10.6289 12.7017 7.23315 13.9751L7.09551 14.0267C5.53429 14.6121 4.5 16.1046 4.5 17.772ZM7.75984 15.3796C10.816 14.2335 14.184 14.2335 17.2402 15.3796L17.3778 15.4312C18.3536 15.7971 19 16.7299 19 17.772V18.5H6V17.772C6 16.7299 6.64643 15.7971 7.62219 15.4312L7.75984 15.3796Z" fill="#97A1AF"/>
</svg>
